HIERARCHY
ROOT Hips
{
  OFFSET -162.848 91.3483 -156.019
  CHANNELS 6 Xposition Yposition Zposition Zrotation Xrotation Yrotation
  JOINT ToSpine
  {
    OFFSET -2.69724 7.43032 -0.144315
    CHANNELS 3 Zrotation Xrotation Yrotation
    JOINT Spine
    {
      OFFSET -0.0310711 10.7595 1.96963
      CHANNELS 3 Zrotation Xrotation Yrotation
      JOINT Spine1
      {
        OFFSET 13.1342 3.43533 0.764692
        CHANNELS 3 Zrotation Xrotation Yrotation
        JOINT Neck
        {
          OFFSET 29.8703 7.82586 -0.130764
          CHANNELS 3 Zrotation Xrotation Yrotation
          JOINT Head
          {
            OFFSET 9.52751 0.295786 -0.907742
            CHANNELS 3 Zrotation Xrotation Yrotation
            End Site
            {
              OFFSET 16.4037 0.713936 2.7358
            }
          }
        }
        JOINT LeftShoulder
        {
          OFFSET 27.5574 4.95586 2.47156
          CHANNELS 3 Zrotation Xrotation Yrotation
          JOINT LeftArm
          {
            OFFSET 1.20734 -0.998971 20.1238
            CHANNELS 3 Zrotation Xrotation Yrotation
            JOINT LeftForeArm
            {
              OFFSET 26.8049 -0.0536703 -0.155908
              CHANNELS 3 Zrotation Xrotation Yrotation
              JOINT LeftHand
              {
                OFFSET 26.6817 0 0.320147
                CHANNELS 3 Zrotation Xrotation Yrotation
                End Site
                {
                  OFFSET 18.6119 0 0.382219
                }
              }
            }
          }
        }
        JOINT RightShoulder
        {
          OFFSET 27.5927 4.71444 -2.65209
          CHANNELS 3 Zrotation Xrotation Yrotation
          JOINT RightArm
          {
            OFFSET 2.83739 -1.17114 -18.7564
            CHANNELS 3 Zrotation Xrotation Yrotation
            JOINT RightForeArm
            {
              OFFSET 28.839 -0.0548439 1.22491
              CHANNELS 3 Zrotation Xrotation Yrotation
              JOINT RightHand
              {
                OFFSET 26.5114 0 -0.101894
                CHANNELS 3 Zrotation Xrotation Yrotation
                End Site
                {
                  OFFSET 18.2168 0 0
                }
              }
            }
          }
        }
      }
    }
  }
  JOINT LeftUpLeg
  {
    OFFSET -4.76168 -1.9167 -10.2353
    CHANNELS 3 Zrotation Xrotation Yrotation
    JOINT LeftLeg
    {
      OFFSET 2.55951 -42.0585 -8.02213
      CHANNELS 3 Zrotation Xrotation Yrotation
      JOINT LeftFoot
      {
        OFFSET 3.16357 -42.5282 -3.95426
        CHANNELS 3 Zrotation Xrotation Yrotation
        JOINT LeftToeBase
        {
          OFFSET 0.346054 -6.02161 12.8035
          CHANNELS 3 Zrotation Xrotation Yrotation
          End Site
          {
            OFFSET 0.134235 -1.35082 5.13018
          }
        }
      }
    }
  }
  JOINT RightUpLeg
  {
    OFFSET -4.94151 -1.41743 10.6446
    CHANNELS 3 Zrotation Xrotation Yrotation
    JOINT RightLeg
    {
      OFFSET -2.56294 -42.0364 -7.94377
      CHANNELS 3 Zrotation Xrotation Yrotation
      JOINT RightFoot
      {
        OFFSET -3.0952 -42.555 -4.02241
        CHANNELS 3 Zrotation Xrotation Yrotation
        JOINT RightToeBase
        {
          OFFSET -0.0828122 -6.13587 12.8035
          CHANNELS 3 Zrotation Xrotation Yrotation
          End Site
          {
            OFFSET -0.131328 -1.35082 5.13018
          }
        }
      }
    }
  }
}
MOTION
Frames:	20
Frame Time:	0.0333333
-201.483 89.1641 -198.526 39.9175 -42.644 -37.1682 -70.1915 0 88.8779 117.336 60.7459 -31.5438 -3.05165 14.5195 1.42354 -152.934 10.9664 177.128 -145.405 50.809 -165.067 -1.59471 -21.1129 -34.6074 -39.8547 22.1176 -125.556 26.7217 -2.87212 -94.9153 0.420957 0.00057515 0.358661 -2.06608 8.14449 39.6087 -70.5663 -35.3349 62.2019 0.0278497 0.0220222 98.6257 0.58676 0.00033041 0.0646651 -57.8424 -6.30067 97.4313 -9.29874 70.0914 2.10827 -5.97425 2.9298 1.06248 2.07004 -5.87175 4.64239 -3.2101 7.07329 78.5109 3.16238 48.2606 5.20167 3.01396 8.99329 -1.16758 2.40145 -24.1321 -11.5295 
-191.467 89.0916 -188.35 42.8187 -44.2195 -35.0381 -70.1915 0 88.8779 124.504 60.4078 -37.3311 -1.5922 16.0757 -0.754723 -154.184 12.8425 178.374 -147.193 53.0135 -162.477 -1.71668 -21.1384 -35.712 -40.7492 21.3817 -125.195 25.7895 -2.63802 -94.6711 0.420957 0.00057515 0.358661 -2.22178 9.10715 38.4838 -70.007 -36.8387 62.6167 2.94559 0.436115 97.9728 0.58676 0.00033041 0.0646651 -47.9362 -0.431301 100.336 -79.9075 85.9281 76.1745 -2.79818 0.627802 0.335236 3.88517 -9.86861 7.45615 -13.9438 6.68299 76.1693 3.36922 52.8719 1.83078 -11.0767 -7.16365 1.45053 1.51112 -8.37174 -5.60428 
-182.424 89.1719 -178.159 42.624 -43.6239 -33.2899 -70.1915 0 88.8779 131.262 60.9406 -40.8252 -2.51708 18.6172 -3.20056 -156.43 14.5152 175.515 -148.533 54.4827 -164.528 -1.4531 -20.3374 -35.1204 -38.7041 19.8805 -125.895 23.8638 -1.86772 -93.4508 0.420957 0.00057515 0.358661 -2.2569 9.34911 38.1907 -71.1464 -38.7595 59.8281 4.92496 0.74993 98.244 0.58676 0.00033041 0.0646651 -30.3458 6.21622 97.6925 -160.867 75.8486 160.843 0.182997 0.282403 -0.091998 5.35331 -12.2799 5.84294 -22.5576 8.62421 77.0418 2.84152 54.2959 -2.93084 -10.2292 -19.5864 1.25005 1.42632 -4.78759 -7.07858 
-173.237 89.5931 -167.897 39.9177 -41.6277 -35.3265 -70.1915 0 88.8779 126.957 64.6181 -37.0041 -1.93203 21.0179 -4.34327 -158.54 15.6896 173.427 -149.19 55.5494 -165.407 -1.31851 -19.9514 -34.7151 -36.9979 18.4455 -124.597 19.7785 -1.53939 -93.4945 0.420957 0.00057515 0.358661 -2.41434 9.45881 39.5788 -69.0616 -37.7767 59.5923 3.39464 0.546367 98.6505 0.58676 0.00033041 0.0646651 -10.3467 9.34253 94.7755 -163.27 73.8923 164.946 0.196338 -0.967007 -0.189194 5.59987 -12.8095 6.52947 -30.079 9.67361 81.7004 3.0841 53.008 -0.1482 -6.11855 -21.7757 1.48843 2.32727 -12.2579 -15.1646 
-162.848 91.3483 -156.019 40.4879 -39.4796 -36.6843 -70.1915 0 88.8779 115.502 68.4544 -32.0562 -0.0609153 21.0029 -0.955876 -158.059 16.8293 173.085 -152.952 56.9642 -162.483 -1.18512 -19.6895 -33.9534 -34.8296 19.1326 -123.78 17.3969 -1.17006 -92.9469 0.420957 0.00057515 0.358661 -2.61516 10.153 39.7323 -64.4489 -38.0059 61.3936 1.70399 0.223766 96.849 0.58676 0.00033041 0.0646651 0.323049 8.31968 94.7042 -136.553 84.0749 135.62 -0.901881 -1.57844 -0.109509 4.7634 -11.6492 9.00682 -43.0256 5.7968 82.9936 2.14031 45.4723 -0.48295 -6.63046 -11.6798 1.24238 3.49272 -26.0963 2.63637 
-151.371 93.0568 -143.957 39.5101 -36.6579 -39.0844 -70.1915 0 88.8779 97.5325 72.1252 -18.9957 0.43744 21.2991 1.71831 -154.807 18.1417 171.861 -153.808 58.4154 -161.225 -1.03995 -19.2189 -33.5702 -33.4411 19.7863 -124.198 19.2915 -1.19513 -92.6401 0.420957 0.00057515 0.358661 -2.72185 9.92291 41.4436 -62.5243 -36.5881 60.0199 0.808162 0.112317 96.8311 0.58676 0.00033041 0.0646651 6.20625 6.87261 97.4744 -12.0556 74.6793 7.8145 -3.7072 2.96744 0.714554 4.63062 -11.3155 8.26351 -53.8774 0.111827 81.5156 1.42688 36.0027 1.25297 3.15667 3.31559 -0.612132 3.29714 -20.663 31.3484 
-138.977 94.9541 -131.532 36.8007 -34.9541 -41.49 -70.1915 0 88.8779 71.7806 73.6846 5.34185 3.34051 22.0304 2.51514 -153.993 19.1864 172.743 -156.074 59.4664 -160.112 -0.873107 -18.6324 -33.204 -33.8331 20.8241 -124.952 20.2084 -1.39779 -93.0192 0.420957 0.00057515 0.358661 -2.66985 9.92116 40.922 -60.9831 -36.0966 59.9588 2.73588 0.37381 97.3219 0.58676 0.00033041 0.0646651 6.76059 6.1946 99.9938 -4.22126 51.1234 -8.90186 -8.35096 9.64716 2.43437 5.23792 -12.47 9.0651 -62.0387 -3.563 77.6341 1.05801 29.7292 26.1932 1.39718 15.5252 -1.40302 2.05728 -21.8385 -20.4283 
-127.671 96.1864 -120.215 34.4697 -35.1309 -42.1195 -70.1915 0 88.8779 53.5091 72.399 24.7651 7.684 22.9351 1.79275 -151.944 19.7629 174.259 -158.965 60.1714 -155.625 -0.809464 -18.1678 -33.7805 -34.2695 19.1904 -126.439 19.278 -1.06881 -92.287 0.420957 0.00057515 0.358661 -2.66088 10.3402 39.6873 -62.6798 -35.3943 58.9977 2.16309 0.329606 98.0578 0.58676 0.00033041 0.0646651 4.77174 6.05452 99.4195 -2.82788 31.6005 -11.4212 -9.81523 13.6537 3.39404 5.70014 -13.3045 9.51953 -64.452 1.19203 93.4096 1.19561 36.1895 2.6275 -4.40892 13.6763 0.19129 2.28051 -18.7955 -10.452 
-117.068 96.3718 -109.286 34.0337 -38.6569 -40.9852 -70.1915 0 88.8779 57.2181 72.7333 22.9344 8.92791 23.5078 -0.167733 -147.392 18.2042 171.526 -156.502 59.0095 -155.332 -0.745491 -17.9395 -33.6419 -35.1176 19.8055 -126.721 20.7824 -1.04339 -91.9904 0.420957 0.00057515 0.358661 -2.6809 9.94062 40.9787 -62.437 -33.7318 60.9953 3.40249 0.469933 97.411 0.58676 0.00033041 0.0646651 2.45797 8.93815 100.62 -2.26453 31.8751 -5.97177 -9.208 13.7481 3.25683 5.10193 -12.3364 9.88022 -62.6255 4.55139 97.2592 3.39918 57.194 -3.32285 -3.01652 10.9 -0.0124424 2.34466 -15.9768 -17.7162 
-106.372 94.9432 -98.6488 38.3135 -42.7515 -37.546 -70.1915 0 88.8779 77.7482 74.0401 1.00326 7.54294 22.6477 0.469425 -143.655 16.7173 170.706 -153.206 57.9607 -154.662 -0.98936 -19.0974 -33.3087 -36.4555 20.9176 -126.018 23.691 -1.41192 -92.4598 0.420957 0.00057515 0.358661 -2.76548 9.51336 43.1234 -64.5915 -32.0464 60.1956 0.260248 0.0571356 98.7483 0.58676 0.00033041 0.0646651 -4.51909 9.09506 102.522 -3.21261 41.3074 -11.7982 -10.8259 12.6048 3.46959 8.02486 -17.2451 12.493 -58.4318 4.41261 94.6831 20.1934 82.776 -28.1219 -6.21212 8.7931 0.747556 1.73072 -12.6484 -3.68377 
-96.281 93.4 -89.1005 44.158 -46.952 -32.8542 -70.1915 0 88.8779 106.471 71.1975 -28.4122 7.41374 21.7893 -1.45653 -144.135 15.403 171.14 -151.571 56.7626 -154.305 -0.840494 -18.7054 -32.5883 -36.4188 19.5874 -127.507 26.5824 -1.51463 -92.278 0.420957 0.00057515 0.358661 -2.60804 8.64741 44.2934 -66.1687 -30.4556 59.9962 1.12006 0.211352 99.5872 0.58676 0.00033041 0.0646651 -14.7914 7.87042 102.79 -4.64641 50.2845 -13.7928 -2.06257 1.45879 0.31563 2.60209 -8.31357 10.9947 -50.2595 4.66704 92.0517 169.011 73.1857 175.618 -11.2742 6.34132 1.73434 1.35159 -12.3928 2.83239 
-86.0598 92.2547 -80.1362 46.461 -51.8355 -30.1326 -70.1915 0 88.8779 123.795 65.3849 -44.8716 5.41269 20.7528 -3.48279 -146.416 13.3607 171.987 -150.939 54.6306 -155.081 -0.781594 -18.4102 -32.6847 -35.8449 20.9527 -127.57 26.2555 -1.45661 -92.2053 0.420957 0.00057515 0.358661 -2.6436 8.79495 44.1771 -66.7575 -31.7109 59.4707 1.67477 0.301719 99.3859 0.58676 0.00033041 0.0646651 -24.4207 8.37468 102.453 -5.45853 58.5077 -5.42606 4.34025 -16.5771 -1.3389 0.566462 -4.23382 8.74394 -35.0199 8.47175 90.2543 173.328 57.3548 166.499 -18.6391 9.2242 3.32847 2.39531 -19.0852 4.64181 
-75.7569 91.8013 -70.5067 45.804 -52.366 -29.287 -70.1915 0 88.8779 126.331 61.9907 -45.9274 4.49169 18.7409 -4.40034 -150.817 11.7167 171.082 -151.746 52.7547 -157.045 -0.789127 -18.7637 -31.7894 -35.0903 17.9523 -128.339 28.6477 -0.887339 -90.8972 0.420957 0.00057515 0.358661 -2.51973 8.42652 44.0662 -69.0799 -34.0777 58.2817 1.34646 0.232114 98.8826 0.58676 0.00033041 0.0646651 -32.9334 7.53939 101.914 -7.25838 61.4749 -9.76784 4.51646 -20.4662 -1.49868 5.26604 -13.6446 20.321 -16.8182 11.5154 85.7156 173.018 54.4322 169.545 -17.5312 9.96795 3.15058 2.70698 -21.6148 0.395979 
-63.9068 92.2654 -59.5021 45.9465 -52.2843 -28.9847 -70.1915 0 88.8779 127.69 59.5455 -46.94 0.924779 16.9406 -2.04938 -150.483 10.1382 172.682 -149.895 50.9748 -159.056 -0.995669 -19.4491 -32.4464 -33.5032 17.6602 -127.272 28.3416 -0.604628 -90.4001 0.420957 0.00057515 0.358661 -2.4408 8.13818 44.1892 -70.7455 -35.5781 55.3005 0.899536 0.165411 99.1561 0.58676 0.00033041 0.0646651 -46.4891 5.16952 102.895 -6.07541 56.862 -12.4777 0.0696095 -19.9571 -1.69609 7.95226 -17.2069 16.1448 -5.93722 12.0822 83.2252 170.962 63.4751 176.429 -14.3047 7.48145 2.34349 2.6777 -22.9089 -4.3864 
-51.6137 92.9475 -48.2722 39.7297 -51.9026 -33.9623 -70.1915 0 88.8779 122.878 60.4166 -37.7044 -1.14193 16.0879 -2.34856 -151.284 9.08309 176.514 -150.483 49.5199 -160.518 -0.831747 -18.5245 -32.9945 -32.8654 20.2286 -127.571 25.6972 -1.33872 -92.039 0.420957 0.00057515 0.358661 -2.43239 8.62242 42.3725 -69.5496 -37.1856 54.5773 0.523249 0.114354 100.131 0.58676 0.00033041 0.0646651 -56.1034 4.62995 106.434 -4.39262 49.2135 -12.1943 -2.04765 -6.01164 -0.405905 10.3486 -21.5872 0.062589 3.6789 14.2337 81.8401 157.816 79.3921 -160.217 -9.46715 10.1699 1.41926 2.53562 -24.0254 -8.96338 
-39.3879 93.8507 -37.5557 39.9229 -49.496 -35.1085 -70.1915 0 88.8779 119.063 59.7708 -33.7352 -3.37782 14.2711 -0.514075 -149.9 8.4381 176.751 -148.461 48.4079 -164.009 -0.766346 -18.3168 -32.7607 -32.4866 20.4867 -127.59 26.5382 -1.43002 -92.122 0.420957 0.00057515 0.358661 -2.37715 8.76291 41.2775 -68.1253 -38.1069 53.6002 0.00300685 0.0210749 100.996 0.58676 0.00033041 0.0646651 -65.5209 -0.486524 103.518 -3.62871 41.9019 -14.919 -9.16411 8.66338 2.45625 4.12784 -8.99703 0.495436 5.22507 11.5467 81.2204 14.0082 77.0653 -10.8853 -2.63142 14.7041 -0.301203 2.22915 -17.2383 -10.4432 
-27.1096 93.808 -25.5577 39.9427 -46.4553 -36.538 -70.1915 0 88.8779 108.113 61.2215 -23.5996 -1.72355 13.6251 0.915567 -148.723 9.24488 178.292 -147.796 49.1325 -163.611 -1.02051 -19.0477 -33.8178 -33.4989 18.4901 -126.698 23.6833 -1.41348 -92.4726 0.420957 0.00057515 0.358661 -2.28296 8.98888 39.5123 -67.2602 -39.1844 54.9213 -0.211753 -0.0205107 100.503 0.58676 0.00033041 0.0646651 -69.6267 -4.06811 99.2785 -3.4547 47.1382 -7.16483 -2.15208 4.42437 0.613225 1.67743 -4.608 2.93603 1.86658 9.15046 80.2043 3.94104 51.2158 7.89663 0.273052 16.9537 -1.21859 2.23548 -20.0719 -15.9024 
-15.4203 93.3272 -14.8278 41.8249 -44.4652 -37.2529 -70.1915 0 88.8779 102.829 61.3382 -17.7637 0.977119 14.045 -2.08778 -149.381 10.2879 178.636 -148.241 50.2549 -162.883 -0.859146 -18.7462 -32.7058 -34.0312 18.0463 -126.773 26.4708 -1.51421 -92.3 0.420957 0.00057515 0.358661 -2.33956 8.3178 42.3303 -67.0163 -36.3857 57.0355 -1.39185 -0.228961 99.8483 0.58676 0.00033041 0.0646651 -69.6127 -8.20103 95.3024 -5.50662 60.7166 -2.11199 -4.83145 2.32213 0.812343 1.55175 -6.10162 9.19046 -4.48105 6.83101 79.7447 2.91359 30.63 14.1965 7.65311 18.9638 -3.54389 1.78609 -21.7336 -29.143 
-3.92349 92.6402 -3.75292 44.7513 -44.7447 -36.086 -70.1915 0 88.8779 106.029 62.424 -20.363 2.56139 15.2191 -2.76662 -148.171 12.8374 -178.392 -148.55 52.8013 -160.462 -1.01083 -18.9901 -33.8656 -34.7703 19.5475 -125.922 25.3408 -1.36512 -92.144 0.420957 0.00057515 0.358661 -2.34707 8.29446 42.5013 -69.6927 -34.8882 56.5857 -1.58467 -0.268179 99.976 0.58676 0.00033041 0.0646651 -65.6205 -6.23178 98.1055 -19.0447 78.4883 10.7654 -2.45225 1.88142 0.412698 3.37812 -8.86549 6.97801 -9.55889 5.86693 78.1994 2.74275 32.2119 14.1113 8.03102 19.3577 -3.71262 2.08284 -19.9982 -25.8886 
7.24405 91.6085 7.30905 50.9708 -44.4853 -30.2273 -70.1915 0 88.8779 116.215 61.5339 -28.1845 3.96569 15.5188 -4.68545 -147.3 14.5978 -178.7 -148.454 54.6581 -159.208 -0.972973 -18.7885 -33.9884 -38.5066 22.3907 -124.462 36.9935 -3.10564 -93.3784 0.420957 0.00057515 0.358661 -2.31032 8.38266 41.7599 -69.9565 -34.8115 57.98 -1.66146 -0.286911 99.9198 0.58676 0.00033041 0.0646651 -57.0645 -0.203501 99.0222 -147.087 81.4739 141.969 -0.950468 -1.08363 -0.0611015 3.18477 -8.73035 8.04788 -18.791 4.95599 77.1118 3.35524 41.1828 14.4637 -5.61412 5.49836 0.718263 3.52488 -6.56094 -25.9848 
